<svg xmlns="http://www.w3.org/2000/svg" width="82" height="93" viewBox="0 0 82 93" shape-rendering="crispEdges"><title>Original painted Sorcery study; CC0; unapproved</title><polygon points="2,2 79,2 79,90 2,90" fill="#4a392c"/><polyline points="3,89 3,3 78,3" fill="none" stroke="#9c7c4c" stroke-width="1"/><g id="skill-cloth"><polygon points="3,64 11,54 19,59 27,50 38,59 49,56 61,65 77,55 78,81 3,81" fill="#292b36"/><polygon points="3,66 11,57 17,61 11,64 7,77 3,76" fill="#555064"/><polygon points="15,81 21,63 27,54 31,57 26,67 24,81" fill="#494657"/><polygon points="31,81 37,63 43,60 40,68 40,81" fill="#626071"/><polygon points="46,81 58,67 63,68 55,81" fill="#44424d"/><polyline points="5,72 11,63 13,62" fill="none" stroke="#777080" stroke-width="1"/><polyline points="23,71 26,64 27,61" fill="none" stroke="#777080" stroke-width="1"/><polyline points="35,76 38,68 40,64" fill="none" stroke="#8b8090" stroke-width="1"/></g><g id="skill-conjuring-hand"><polygon points="25,69 28,49 23,39 21,26 24,23 27,27 31,36 32,28 33,11 36,8 39,11 39,29 42,17 45,14 48,16 46,33 51,26 54,26 56,29 50,43 45,52 45,69" fill="#4a302a"/><polygon points="28,66 31,48 26,38 23,27 25,26 33,41 35,29 35,12 37,11 37,33 40,36 44,18 46,17 43,37 45,41 52,29 54,29 47,44 42,50 42,66" fill="#b38060"/><polygon points="31,47 33,40 38,35 43,38 45,43 40,50 39,64 32,64" fill="#cda27b"/><polygon points="33,44 36,39 40,39 41,42 38,47 34,50" fill="#dfb992"/><polyline points="36,14 36,27" fill="none" stroke="#e3c39a" stroke-width="1"/><polyline points="44,20 42,32" fill="none" stroke="#ddba8d" stroke-width="1"/><polyline points="25,28 28,35" fill="none" stroke="#c79c78" stroke-width="1"/><polyline points="33,43 35,45 39,43" fill="none" stroke="#8e5e48" stroke-width="1"/><polyline points="39,47 38,53" fill="none" stroke="#916047" stroke-width="1"/><polygon points="22,61 29,56 41,58 47,62 51,81 18,81" fill="#292c3c"/><polygon points="24,62 28,59 31,65 29,80 20,80" fill="#555468"/><polygon points="33,62 39,61 44,67 46,80 37,80" fill="#414557"/><polygon points="22,62 29,57 41,59 47,63 46,67 39,63 29,61 23,66" fill="#a88751"/><polyline points="24,63 29,59 40,61 45,64" fill="none" stroke="#d3b57e" stroke-width="1"/></g><polygon points="52,28 63,20 72,25 64,34" fill="#d9c69a"/><polyline points="48,35 55,39 64,38" fill="none" stroke="#9daba6" stroke-width="1"/></svg>
