<svg xmlns="http://www.w3.org/2000/svg" width="82" height="93" viewBox="0 0 82 93"><title>Original Sorcery meridian skill normal rank 2; CC0 draft</title><defs>
 <linearGradient id="brass" x1="0" y1="0" x2=".8" y2="1" gradientUnits="objectBoundingBox"><stop stop-color="#fff0ac"/><stop offset=".18" stop-color="#bc9450"/><stop offset=".38" stop-color="#665036"/><stop offset=".52" stop-color="#dfb76b"/><stop offset=".72" stop-color="#8a612f"/><stop offset="1" stop-color="#392b26"/></linearGradient>
 <linearGradient id="cloth"><stop stop-color="#121522"/><stop offset=".18" stop-color="#323952"/><stop offset=".3" stop-color="#535976"/><stop offset=".43" stop-color="#22283d"/><stop offset=".63" stop-color="#424763"/><stop offset=".8" stop-color="#191c30"/><stop offset="1" stop-color="#303550"/></linearGradient>
 <radialGradient id="glass" cx=".32" cy=".24" r=".78"><stop stop-color="#e2f0df"/><stop offset=".16" stop-color="#98c3c9"/><stop offset=".38" stop-color="#507d98"/><stop offset=".65" stop-color="#283952"/><stop offset=".86" stop-color="#121b31"/><stop offset="1" stop-color="#677d9a"/></radialGradient>
 <radialGradient id="field" cx=".42" cy=".35" r=".85"><stop stop-color="#554b44"/><stop offset=".55" stop-color="#302e35"/><stop offset="1" stop-color="#171821"/></radialGradient>
 <linearGradient id="silver" x2=".5" y2="1"><stop stop-color="#f1f0d9"/><stop offset=".4" stop-color="#95b8c4"/><stop offset=".6" stop-color="#4c647f"/><stop offset="1" stop-color="#263044"/></linearGradient>
 </defs><g transform="scale(1.28125 1.453125)"><rect x="4" y="4" width="56" height="56" fill="url(#field)" stroke="url(#brass)" stroke-width="1.5"/><path d="M4 48 Q20 37 31 47 T60 46 L60 60 L4 60Z" fill="url(#cloth)" /><g transform="translate(0 0) scale(.94 .88)"><ellipse cx="33" cy="54" rx="22" ry="4" fill="#090f19" opacity=".65"/><path d="M13 54 Q20 43 20 36 L26 39 Q23 47 26 51 L43 51 Q40 45 40 38 L45 35 Q44 47 53 55 Q32 61 13 54Z" fill="url(#brass)" stroke="#201d23" stroke-width="1.3" /><path d="M18 54 Q33 57 48 54 M23 48 L22 52 M42 47 L46 53" fill="none" stroke="#f0d190" stroke-width="0.8" /><ellipse cx="33" cy="29" rx="24" ry="25" fill="none" stroke="#181b23" stroke-width="4" transform="rotate(-26 33 29)"/><ellipse cx="33" cy="29" rx="23" ry="24" fill="none" stroke="url(#brass)" stroke-width="3" transform="rotate(-26 33 29)"/><ellipse cx="32" cy="29" rx="18" ry="19" fill="url(#glass)" stroke="#172235" stroke-width="1" /><path d="M19 26 Q26 16 38 20 Q30 19 24 28 Q21 32 20 38 Q16 34 19 26Z" fill="#a3cbd2" opacity=".22"/><path d="M22 39 Q29 42 43 32 M24 42 Q32 44 40 38" fill="none" stroke="#7196b2" stroke-width="0.8" /><ellipse cx="26" cy="18" rx="4" ry="2" fill="#e2ecdd" transform="rotate(-35 26 18)" opacity=".8"/><path d="M11 19 C11 34 43 48 54 36 L54 40 C41 50 10 36 10 22Z" fill="url(#brass)" stroke="#362e2a" stroke-width="0.7" /><path d="M11 20 C16 33 42 43 54 36" fill="none" stroke="#e9cf8d" stroke-width="1" /><path d="M17 29 l-1 2" fill="none" stroke="#3d302a" stroke-width="0.8" /><path d="M22 33 l-1 2" fill="none" stroke="#3d302a" stroke-width="0.8" /><path d="M28 36 l-1 2" fill="none" stroke="#3d302a" stroke-width="0.8" /><path d="M35 39 l-1 2" fill="none" stroke="#3d302a" stroke-width="0.8" /><path d="M42 40 l-1 2" fill="none" stroke="#3d302a" stroke-width="0.8" /><path d="M48 39 l-1 2" fill="none" stroke="#3d302a" stroke-width="0.8" /><ellipse cx="22" cy="7" rx="3" ry="2" fill="url(#brass)" stroke="#25212a" stroke-width="0.6" /><path d="M7 46 L10 37 L13 46 L10 51Z" fill="url(#silver)" stroke="#172031" stroke-width="0.7" /></g><path d="M15 56 H49 L47 62 H17Z" fill="#171a26" stroke="#8d7449" stroke-width="0.7" /><rect x="24.5" y="57" width="5" height="4" fill="#e1d5ae"/><rect x="34.5" y="57" width="5" height="4" fill="#e1d5ae"/></g></svg>
