<svg xmlns="http://www.w3.org/2000/svg" width="32" height="32" viewBox="0 0 32 32" shape-rendering="crispEdges"><title>Original painted Sorcery study; CC0; unapproved</title><polygon points="2,2 29,2 29,29 2,29" fill="#4a392c"/><polyline points="3,28 3,3 28,3" fill="none" stroke="#9c7c4c" stroke-width="1"/><g id="native-small-open-book"><polygon points="3,19 18,14 29,18 18,26 4,23" fill="#211b1b"/><polygon points="4,18 17,14 27,18 18,24 5,22" fill="#6d322d"/><polygon points="5,19 17,16 26,18 17,23 6,21" fill="#b29b6b"/><polygon points="5,17 14,14 18,16 20,14 28,15 26,20 18,23 15,21 5,21" fill="#4b352a"/><polygon points="6,16 14,14 17,16 17,22 14,20 6,20" fill="#c5b281"/><polygon points="6,16 13,14 16,16 9,18 6,19" fill="#e4d3a1"/><polygon points="18,16 20,14 28,15 26,20 18,22" fill="#d7c18f"/><polygon points="18,17 21,15 26,15 24,16 19,19" fill="#ecd9a9"/><polygon points="17,16 18,17 18,22 17,22" fill="#73533b"/><polyline points="8,17 12,16 14,16" fill="none" stroke="#8b7552" stroke-width="1"/><polyline points="19,17 24,16" fill="none" stroke="#9c855d" stroke-width="1"/><polyline points="8,18 12,17 14,17" fill="none" stroke="#8b7552" stroke-width="1"/><polyline points="19,19 24,17" fill="none" stroke="#9c855d" stroke-width="1"/><polyline points="8,20 12,18 14,19" fill="none" stroke="#8b7552" stroke-width="1"/><polyline points="19,20 24,18" fill="none" stroke="#9c855d" stroke-width="1"/><polyline points="5,22 17,24 26,19" fill="none" stroke="#b79154" stroke-width="1"/><polygon points="9,22 10,22 10,23 9,23" fill="#d6b675"/></g><g id="native-small-candle"><polygon points="6,20 9,18 9,13 8,12 8,11 11,11 11,12 10,13 10,18 13,20 12,21 6,21" fill="#463021"/><polygon points="6,20 9,19 9,13 10,13 10,19 13,20 11,20 7,20" fill="#ad854b"/><polyline points="8,20 9,19 10,14" fill="none" stroke="#d4b578" stroke-width="1"/><polygon points="8,12 8,6 11,6 11,12 10,13" fill="#bca16b"/><polygon points="9,6 10,6 10,11 9,12" fill="#e3d09a"/><polygon points="10,6 11,6 11,9 10,9" fill="#8c7449"/><polyline points="9,7 9,8 9,9" fill="none" stroke="#f1dd9d" stroke-width="1"/><polygon points="9,6 9,5 9,3 10,2 11,4 11,6 10,6" fill="#ba7a35"/><polygon points="9,5 9,4 10,3 10,5 10,6" fill="#f2d99b"/><polyline points="10,6 10,7" fill="none" stroke="#382b20" stroke-width="1"/></g></svg>
